<svg width="199" height="59" viewBox="0 0 199 59" fill="none" xmlns="http://www.w3.org/2000/svg">
<g clip-path="url(#clip0_1_6412)">
<rect width="199" height="59" fill="#8A1538"/>
<path d="M57.044 39V20.52H61.104V39H57.044ZM59.844 39V35.724H71.296V39H59.844ZM59.844 31.16V28.164H69.896V31.16H59.844ZM59.844 23.768V20.52H71.24V23.768H59.844ZM78.9785 39.392C77.7465 39.392 76.6638 39.0747 75.7305 38.44C74.8158 37.8053 74.1065 36.9093 73.6025 35.752C73.0985 34.5947 72.8465 33.2227 72.8465 31.636C72.8465 30.1427 73.0705 28.8173 73.5185 27.66C73.9665 26.5027 74.6292 25.5973 75.5065 24.944C76.3838 24.2907 77.4758 23.964 78.7825 23.964C79.7345 23.964 80.5372 24.1413 81.1905 24.496C81.8438 24.8507 82.3758 25.3733 82.7865 26.064C83.2158 26.736 83.5518 27.548 83.7945 28.5H84.4385C84.3078 27.9027 84.1865 27.324 84.0745 26.764C83.9812 26.1853 83.9065 25.6347 83.8505 25.112C83.7945 24.5893 83.7665 24.132 83.7665 23.74V18.98H87.7985V31.776V39H84.4385V34.744H83.8785C83.6732 35.7893 83.3558 36.6573 82.9265 37.348C82.4972 38.0387 81.9465 38.552 81.2745 38.888C80.6212 39.224 79.8558 39.392 78.9785 39.392ZM80.3225 36.088C80.9385 36.088 81.4612 35.9573 81.8905 35.696C82.3198 35.4347 82.6745 35.0987 82.9545 34.688C83.2345 34.2587 83.4398 33.8013 83.5705 33.316C83.7012 32.812 83.7665 32.3453 83.7665 31.916V31.384C83.7665 31.0293 83.7105 30.6653 83.5985 30.292C83.5052 29.9 83.3652 29.5173 83.1785 29.144C82.9918 28.7707 82.7585 28.444 82.4785 28.164C82.1985 27.8653 81.8718 27.632 81.4985 27.464C81.1252 27.296 80.7145 27.212 80.2665 27.212C79.5945 27.212 79.0252 27.3987 78.5585 27.772C78.0918 28.1453 77.7278 28.668 77.4665 29.34C77.2052 29.9933 77.0745 30.7587 77.0745 31.636C77.0745 32.532 77.2052 33.316 77.4665 33.988C77.7465 34.66 78.1292 35.1827 78.6145 35.556C79.0998 35.9107 79.6692 36.088 80.3225 36.088ZM96.2173 39.392C94.5 39.392 93.2026 38.8133 92.3253 37.656C91.4666 36.48 91.0373 34.6973 91.0373 32.308V24.3H95.0693V31.804C95.0693 33.2413 95.284 34.3147 95.7133 35.024C96.1426 35.7147 96.796 36.06 97.6733 36.06C98.196 36.06 98.6533 35.9293 99.0453 35.668C99.4373 35.4067 99.7733 35.0427 100.053 34.576C100.333 34.1093 100.539 33.5587 100.669 32.924C100.819 32.2893 100.903 31.608 100.921 30.88V24.3H104.953V33.008V39H101.705L101.677 34.408H101.173C100.893 35.5653 100.539 36.5173 100.109 37.264C99.6986 37.992 99.1666 38.5333 98.5133 38.888C97.8786 39.224 97.1133 39.392 96.2173 39.392ZM115.175 39.392C113.906 39.392 112.795 39.2053 111.843 38.832C110.891 38.4587 110.098 37.936 109.463 37.264C108.829 36.592 108.353 35.7987 108.035 34.884C107.718 33.9507 107.559 32.9333 107.559 31.832C107.559 30.6747 107.718 29.62 108.035 28.668C108.371 27.6973 108.857 26.8573 109.491 26.148C110.126 25.4387 110.91 24.888 111.843 24.496C112.777 24.104 113.841 23.908 115.035 23.908C116.23 23.908 117.266 24.104 118.143 24.496C119.039 24.888 119.758 25.4387 120.299 26.148C120.859 26.8387 121.242 27.66 121.447 28.612L117.723 29.816C117.667 29.2373 117.509 28.7427 117.247 28.332C117.005 27.9027 116.669 27.5853 116.239 27.38C115.829 27.156 115.362 27.044 114.839 27.044C114.298 27.044 113.831 27.156 113.439 27.38C113.047 27.5853 112.711 27.8933 112.431 28.304C112.17 28.696 111.965 29.1813 111.815 29.76C111.685 30.32 111.619 30.9547 111.619 31.664C111.619 32.672 111.75 33.5307 112.011 34.24C112.291 34.9307 112.693 35.4627 113.215 35.836C113.757 36.1907 114.419 36.368 115.203 36.368C115.95 36.368 116.547 36.228 116.995 35.948C117.443 35.6493 117.77 35.276 117.975 34.828C118.199 34.3613 118.339 33.8853 118.395 33.4L121.923 34.184C121.83 34.912 121.625 35.5933 121.307 36.228C121.009 36.8627 120.579 37.4133 120.019 37.88C119.459 38.3467 118.778 38.72 117.975 39C117.191 39.2613 116.258 39.392 115.175 39.392ZM127.531 39.392C126.71 39.392 125.982 39.2333 125.347 38.916C124.713 38.58 124.218 38.104 123.863 37.488C123.509 36.872 123.331 36.1067 123.331 35.192C123.331 34.3893 123.481 33.7173 123.779 33.176C124.097 32.6347 124.554 32.196 125.151 31.86C125.749 31.524 126.486 31.244 127.363 31.02C128.241 30.796 129.239 30.6 130.359 30.432C130.957 30.3387 131.442 30.2547 131.815 30.18C132.207 30.0867 132.497 29.9467 132.683 29.76C132.87 29.5547 132.963 29.2653 132.963 28.892C132.963 28.3693 132.777 27.9213 132.403 27.548C132.03 27.1747 131.442 26.988 130.639 26.988C130.098 26.988 129.594 27.0813 129.127 27.268C128.679 27.4547 128.287 27.7347 127.951 28.108C127.634 28.4813 127.401 28.9573 127.251 29.536L123.695 28.444C123.919 27.6787 124.237 27.016 124.647 26.456C125.077 25.896 125.59 25.4293 126.187 25.056C126.785 24.664 127.466 24.3747 128.231 24.188C128.997 24.0013 129.827 23.908 130.723 23.908C132.161 23.908 133.327 24.1413 134.223 24.608C135.138 25.056 135.819 25.7653 136.267 26.736C136.715 27.688 136.939 28.92 136.939 30.432V32.952C136.939 33.6053 136.949 34.268 136.967 34.94C137.005 35.612 137.042 36.2933 137.079 36.984C137.135 37.656 137.191 38.328 137.247 39H133.691C133.617 38.5333 133.542 38.0013 133.467 37.404C133.411 36.788 133.365 36.172 133.327 35.556H132.823C132.562 36.2653 132.189 36.9093 131.703 37.488C131.218 38.0667 130.621 38.5333 129.911 38.888C129.221 39.224 128.427 39.392 127.531 39.392ZM129.239 36.48C129.594 36.48 129.949 36.4147 130.303 36.284C130.677 36.1533 131.031 35.976 131.367 35.752C131.722 35.5093 132.039 35.2107 132.319 34.856C132.618 34.5013 132.861 34.1 133.047 33.652L132.991 31.3L133.635 31.44C133.299 31.6827 132.907 31.8787 132.459 32.028C132.011 32.1587 131.545 32.2613 131.059 32.336C130.593 32.4107 130.126 32.4947 129.659 32.588C129.193 32.6813 128.773 32.8027 128.399 32.952C128.045 33.1013 127.755 33.3067 127.531 33.568C127.326 33.8107 127.223 34.156 127.223 34.604C127.223 35.1827 127.41 35.64 127.783 35.976C128.157 36.312 128.642 36.48 129.239 36.48ZM140.186 39V31.888V24.3H143.518L143.546 29.312H144.078C144.228 28.0613 144.48 27.044 144.834 26.26C145.208 25.476 145.721 24.8973 146.374 24.524C147.028 24.1507 147.84 23.964 148.81 23.964C148.978 23.964 149.156 23.9733 149.342 23.992C149.548 23.992 149.781 24.02 150.042 24.076L149.874 28.36C149.594 28.2293 149.286 28.136 148.95 28.08C148.614 28.024 148.316 27.996 148.054 27.996C147.326 27.996 146.701 28.164 146.178 28.5C145.656 28.836 145.226 29.3213 144.89 29.956C144.573 30.572 144.358 31.328 144.246 32.224V39H140.186ZM158.824 39.392C157.611 39.392 156.528 39.224 155.576 38.888C154.643 38.552 153.85 38.0667 153.196 37.432C152.543 36.7973 152.039 36.0133 151.684 35.08C151.348 34.1467 151.18 33.092 151.18 31.916C151.18 30.7587 151.339 29.6947 151.656 28.724C151.992 27.7347 152.478 26.8853 153.112 26.176C153.747 25.448 154.522 24.888 155.436 24.496C156.351 24.104 157.387 23.908 158.544 23.908C159.664 23.908 160.663 24.0947 161.54 24.468C162.418 24.8227 163.146 25.364 163.724 26.092C164.322 26.82 164.751 27.716 165.012 28.78C165.292 29.8253 165.395 31.0293 165.32 32.392L153.784 32.504V30.292L162.996 30.208L161.568 31.328C161.699 30.3387 161.634 29.5267 161.372 28.892C161.111 28.2573 160.728 27.7907 160.224 27.492C159.739 27.1933 159.198 27.044 158.6 27.044C157.891 27.044 157.266 27.2307 156.724 27.604C156.183 27.9773 155.763 28.528 155.464 29.256C155.166 29.9653 155.016 30.824 155.016 31.832C155.016 33.4187 155.362 34.5853 156.052 35.332C156.762 36.0787 157.686 36.452 158.824 36.452C159.347 36.452 159.786 36.3867 160.14 36.256C160.514 36.1067 160.812 35.92 161.036 35.696C161.279 35.472 161.466 35.22 161.596 34.94C161.746 34.66 161.867 34.38 161.96 34.1L165.46 34.856C165.292 35.5467 165.04 36.172 164.704 36.732C164.387 37.2733 163.958 37.7493 163.416 38.16C162.875 38.552 162.222 38.8507 161.456 39.056C160.71 39.28 159.832 39.392 158.824 39.392Z" fill="white"/>
<path d="M27 11C23.4399 11 19.9598 12.0557 16.9997 14.0335C14.0397 16.0114 11.7326 18.8226 10.3702 22.1117C9.0078 25.4008 8.65134 29.02 9.34587 32.5116C10.0404 36.0033 11.7547 39.2106 14.2721 41.7279C16.7894 44.2453 19.9967 45.9596 23.4884 46.6541C26.98 47.3487 30.5992 46.9922 33.8883 45.6298C37.1774 44.2675 39.9886 41.9604 41.9665 39.0003C43.9443 36.0402 45 32.5601 45 29C44.9949 24.2277 43.0969 19.6523 39.7223 16.2777C36.3478 12.9032 31.7723 11.0051 27 11ZM22.386 45.5408L23.04 35.2986H25.7194L27.5826 37.1261H30.9188L31.5618 45.5545C28.5605 46.3918 25.3873 46.3918 22.386 45.5545V45.5408ZM23.9386 21.2724H29.7096L30.8583 36.3017H27.9206L26.0574 34.4742H23.0922L23.9386 21.2724ZM24.3344 20.4479L26.8076 16.8287L29.2809 20.4479H24.3344ZM32.3588 45.3099L30.4901 20.7173L26.8214 15.3722L23.1472 20.72L21.5753 45.2934C17.7018 44.0049 14.4138 41.3792 12.3004 37.8866C10.187 34.3941 9.38646 30.2631 10.0422 26.2339C10.6979 22.2048 12.767 18.5408 15.8788 15.8986C18.9905 13.2564 22.9415 11.8088 27.0237 11.815C31.1058 11.8212 35.0524 13.281 38.156 15.9326C41.2597 18.5843 43.3176 22.2546 43.961 26.2857C44.6045 30.3169 43.7913 34.4454 41.6673 37.9315C39.5432 41.4175 36.2472 44.0333 32.3698 45.3099H32.3588Z" fill="white"/>
</g>
<defs>
<clipPath id="clip0_1_6412">
<rect width="199" height="59" fill="white"/>
</clipPath>
</defs>
</svg>
