<svg width="180" height="164" viewBox="0 0 180 164" fill="none" xmlns="http://www.w3.org/2000/svg">
<path d="M1.23768 139.592C11.9471 141.951 20.7788 140.61 30.7587 136.11C32.4256 136.07 30.5878 137.893 30.1479 138.437C26.0697 143.135 18.2791 144.705 12.0548 145.549C28.6295 151.404 49.0536 155.242 66.0049 150.056C85.7632 144.439 103.844 126.144 101.904 104.6C88.6178 102.529 74.5506 97.2216 65.8754 86.4492C56.021 71.5351 71.2402 60.176 86.6844 67.429C99.2094 73.3137 107.56 85.9211 110.541 99.292C164.757 99.9561 190.229 48.1665 170.007 1.041C169.98 0.983998 169.965 0.922058 169.962 0.858963C169.96 0.795868 169.97 0.732943 169.993 0.674036C170.016 0.61513 170.05 0.561477 170.094 0.516357C170.139 0.471237 170.192 0.435598 170.25 0.411617C170.305 0.384456 170.366 0.368613 170.427 0.36501C170.489 0.361406 170.551 0.370115 170.609 0.39063C170.667 0.411144 170.72 0.44305 170.766 0.484486C170.812 0.525923 170.849 0.576057 170.875 0.63196C194.207 49.1132 167.472 103.919 111.313 105.203C112.499 121.206 103.885 136.709 91.3058 146.134C68.9738 163.301 34.9657 160.914 11.0127 148.155C12.0744 150.872 14.1343 153.097 15.2052 155.801C16.4567 158.966 16.3472 165.213 14.503 163.636C13.2484 160.628 11.7648 157.721 10.0652 154.94C8.39648 152.098 6.42297 148.941 4.624 146.182L4.26968 145.666L0.741103 140.392C0.682732 140.31 0.649896 140.213 0.646723 140.112C0.643535 140.012 0.67016 139.912 0.723225 139.827C0.776289 139.741 0.853439 139.674 0.944982 139.632C1.03652 139.59 1.13835 139.576 1.23768 139.592ZM91.3674 81.377C79.9179 66.8225 61.2215 73.1493 75.1457 86.256C82.5643 92.2759 91.3553 96.3699 100.737 98.174C98.9445 91.9301 95.7384 86.1826 91.3674 81.377Z" fill="#8A1538"/>
</svg>
