<svg width="404" height="437" viewBox="0 0 404 437" fill="none" xmlns="http://www.w3.org/2000/svg">
<mask id="path-1-inside-1_3347_55" fill="white">
<path d="M354.105 215.288C355.67 210.81 360.55 208.469 364.99 210.02L368.153 200.968C363.689 199.408 361.362 194.521 362.918 190.068C364.483 185.59 369.363 183.249 373.803 184.8L376.957 175.773C372.493 174.213 370.166 169.326 371.722 164.872C373.287 160.395 378.167 158.053 382.607 159.605L385.77 150.553C381.306 148.993 378.979 144.106 380.535 139.652C382.1 135.175 386.98 132.833 391.42 134.385L394.574 125.357C390.11 123.797 387.783 118.91 389.34 114.456C390.904 109.979 395.784 107.637 400.224 109.189L403.413 100.064L394.412 96.919C392.847 101.397 387.967 103.738 383.527 102.187C379.063 100.627 376.736 95.7396 378.292 91.2862L369.267 88.1325C367.703 92.6102 362.823 94.9516 358.383 93.4001C353.918 91.8401 351.592 86.9532 353.148 82.4998L344.099 79.3377C342.534 83.8153 337.654 86.1568 333.214 84.6052C328.75 83.0452 326.423 78.1583 327.979 73.7049L318.954 70.5512C317.389 75.0288 312.51 77.3703 308.069 75.8188C303.605 74.2588 301.278 69.3719 302.835 64.9184L293.834 61.7732C292.269 66.2508 287.389 68.5923 282.949 67.0408C278.485 65.4808 276.158 60.5939 277.714 56.1404L268.689 52.9868C267.124 57.4644 262.245 59.8059 257.805 58.2543C253.34 56.6943 251.013 51.8074 252.57 47.354L243.569 44.2087C242.004 48.6864 237.124 51.0279 232.684 49.4763C228.22 47.9163 225.893 43.0294 227.449 38.576L218.448 35.4307C216.884 39.9084 212.004 42.2498 207.564 40.6983C203.003 39.1046 200.643 34.2334 202.208 29.7558L193.183 26.6021C191.618 31.0798 186.739 33.4212 182.299 31.8697C177.834 30.3097 175.507 25.4228 177.064 20.9694L168.039 17.8157C166.474 22.2933 161.594 24.6348 157.154 23.0832C152.69 21.5233 150.363 16.6363 151.919 12.1829L142.894 9.02924C141.329 13.5069 136.45 15.8483 132.009 14.2968C127.545 12.7368 125.218 7.84991 126.775 3.39647L117.75 0.242798L114.586 9.29488C119.051 10.8549 121.378 15.7418 119.821 20.1952C118.257 24.6728 113.377 27.0143 108.937 25.4628L105.782 34.4907C110.246 36.0506 112.573 40.9376 111.017 45.391C109.452 49.8686 104.572 52.2101 100.132 50.6585L96.9692 59.7106C101.433 61.2706 103.76 66.1575 102.204 70.611C100.639 75.0886 95.7597 77.4301 91.3196 75.8785L88.148 84.9548C92.6122 86.5148 94.9391 91.4017 93.3829 95.8551C91.8182 100.333 86.9384 102.674 82.4983 101.123L79.3351 110.175C83.7994 111.735 86.1263 116.622 84.5701 121.075C83.0054 125.553 78.1256 127.894 73.6855 126.343L70.5223 135.395C74.9866 136.955 77.3135 141.842 75.7573 146.295C74.1926 150.773 69.3128 153.114 64.8727 151.563L61.7095 160.615C66.1738 162.175 68.5007 167.062 66.9445 171.515C65.3798 175.993 60.5 178.334 56.0599 176.783L52.9052 185.811C57.3694 187.37 59.6963 192.257 58.1401 196.711C56.5755 201.188 51.6956 203.53 47.2555 201.978L44.0924 211.03C48.5325 212.582 50.8835 217.477 49.3273 221.931C47.7711 226.384 42.907 228.758 38.4427 227.198L35.2796 236.25C39.7197 237.802 42.0707 242.697 40.5145 247.151C38.9583 251.604 34.0941 253.978 29.6299 252.418L26.4668 261.47C30.9069 263.022 33.2579 267.917 31.7017 272.371C30.1455 276.824 25.2813 279.198 20.8171 277.638L17.654 286.69C22.0941 288.242 24.4451 293.137 22.8889 297.591C21.3327 302.044 16.4685 304.418 12.0043 302.858L8.84115 311.91C13.2813 313.462 15.6323 318.357 14.0761 322.811C12.5114 327.288 7.65573 329.638 3.19149 328.078L0.0452617 337.082L9.07027 340.236C10.6349 335.758 15.5148 333.417 19.9549 334.968C24.4191 336.528 26.746 341.415 25.1898 345.868L34.2148 349.022C35.7795 344.544 40.6593 342.203 45.0994 343.755C49.5636 345.315 51.8905 350.201 50.3343 354.655L59.3593 357.809C60.924 353.331 65.8038 350.989 70.2439 352.541C74.7082 354.101 77.0351 358.988 75.4789 363.441L84.5039 366.595C86.0685 362.117 90.9484 359.776 95.3885 361.327C99.8527 362.887 102.18 367.774 100.623 372.228L109.624 375.373C111.189 370.895 116.069 368.554 120.509 370.105C124.973 371.665 127.3 376.552 125.744 381.006L134.745 384.151C136.309 379.673 141.189 377.332 145.629 378.883C150.094 380.443 152.42 385.33 150.864 389.784L159.889 392.937C161.454 388.46 166.334 386.118 170.774 387.67C175.238 389.23 177.565 394.117 176.009 398.57L185.01 401.715C186.574 397.238 191.454 394.896 195.894 396.448C200.358 398.008 202.685 402.895 201.129 407.348L210.154 410.502C211.719 406.024 216.599 403.683 221.039 405.234C225.503 406.794 227.83 411.681 226.274 416.135L235.275 419.28C236.839 414.802 241.719 412.461 246.159 414.012C250.623 415.572 252.95 420.459 251.394 424.913L260.419 428.066C261.984 423.589 266.864 421.247 271.304 422.799C275.768 424.359 278.095 429.246 276.539 433.699L285.54 436.844L288.686 427.841C284.221 426.281 281.895 421.394 283.451 416.94C285.015 412.463 289.895 410.121 294.335 411.673L297.499 402.621C293.034 401.061 290.707 396.174 292.264 391.72C293.828 387.243 298.708 384.901 303.148 386.453C303.148 386.453 303.148 386.453 303.172 386.461L306.335 377.409C301.871 375.849 299.544 370.962 301.101 366.509C302.665 362.031 307.545 359.69 311.985 361.241L315.14 352.213C310.676 350.653 308.349 345.767 309.905 341.313C311.47 336.835 316.349 334.494 320.79 336.046L323.936 327.042C319.471 325.482 317.145 320.595 318.701 316.142C320.265 311.664 325.145 309.322 329.585 310.874L332.74 301.846C328.276 300.286 325.949 295.399 327.505 290.946C329.07 286.468 333.95 284.127 338.39 285.678L341.544 276.65C337.08 275.09 334.753 270.203 336.31 265.75C337.874 261.272 342.754 258.931 347.194 260.482L350.357 251.43C345.893 249.87 343.566 244.983 345.122 240.53C346.687 236.052 351.567 233.711 356.007 235.262L359.17 226.21C354.876 224.628 352.549 219.741 354.105 215.288Z"/>
</mask>
<path d="M354.105 215.288C355.67 210.81 360.55 208.469 364.99 210.02L368.153 200.968C363.689 199.408 361.362 194.521 362.918 190.068C364.483 185.59 369.363 183.249 373.803 184.8L376.957 175.773C372.493 174.213 370.166 169.326 371.722 164.872C373.287 160.395 378.167 158.053 382.607 159.605L385.77 150.553C381.306 148.993 378.979 144.106 380.535 139.652C382.1 135.175 386.98 132.833 391.42 134.385L394.574 125.357C390.11 123.797 387.783 118.91 389.34 114.456C390.904 109.979 395.784 107.637 400.224 109.189L403.413 100.064L394.412 96.919C392.847 101.397 387.967 103.738 383.527 102.187C379.063 100.627 376.736 95.7396 378.292 91.2862L369.267 88.1325C367.703 92.6102 362.823 94.9516 358.383 93.4001C353.918 91.8401 351.592 86.9532 353.148 82.4998L344.099 79.3377C342.534 83.8153 337.654 86.1568 333.214 84.6052C328.75 83.0452 326.423 78.1583 327.979 73.7049L318.954 70.5512C317.389 75.0288 312.51 77.3703 308.069 75.8188C303.605 74.2588 301.278 69.3719 302.835 64.9184L293.834 61.7732C292.269 66.2508 287.389 68.5923 282.949 67.0408C278.485 65.4808 276.158 60.5939 277.714 56.1404L268.689 52.9868C267.124 57.4644 262.245 59.8059 257.805 58.2543C253.34 56.6943 251.013 51.8074 252.57 47.354L243.569 44.2087C242.004 48.6864 237.124 51.0279 232.684 49.4763C228.22 47.9163 225.893 43.0294 227.449 38.576L218.448 35.4307C216.884 39.9084 212.004 42.2498 207.564 40.6983C203.003 39.1046 200.643 34.2334 202.208 29.7558L193.183 26.6021C191.618 31.0798 186.739 33.4212 182.299 31.8697C177.834 30.3097 175.507 25.4228 177.064 20.9694L168.039 17.8157C166.474 22.2933 161.594 24.6348 157.154 23.0832C152.69 21.5233 150.363 16.6363 151.919 12.1829L142.894 9.02924C141.329 13.5069 136.45 15.8483 132.009 14.2968C127.545 12.7368 125.218 7.84991 126.775 3.39647L117.75 0.242798L114.586 9.29488C119.051 10.8549 121.378 15.7418 119.821 20.1952C118.257 24.6728 113.377 27.0143 108.937 25.4628L105.782 34.4907C110.246 36.0506 112.573 40.9376 111.017 45.391C109.452 49.8686 104.572 52.2101 100.132 50.6585L96.9692 59.7106C101.433 61.2706 103.76 66.1575 102.204 70.611C100.639 75.0886 95.7597 77.4301 91.3196 75.8785L88.148 84.9548C92.6122 86.5148 94.9391 91.4017 93.3829 95.8551C91.8182 100.333 86.9384 102.674 82.4983 101.123L79.3351 110.175C83.7994 111.735 86.1263 116.622 84.5701 121.075C83.0054 125.553 78.1256 127.894 73.6855 126.343L70.5223 135.395C74.9866 136.955 77.3135 141.842 75.7573 146.295C74.1926 150.773 69.3128 153.114 64.8727 151.563L61.7095 160.615C66.1738 162.175 68.5007 167.062 66.9445 171.515C65.3798 175.993 60.5 178.334 56.0599 176.783L52.9052 185.811C57.3694 187.37 59.6963 192.257 58.1401 196.711C56.5755 201.188 51.6956 203.53 47.2555 201.978L44.0924 211.03C48.5325 212.582 50.8835 217.477 49.3273 221.931C47.7711 226.384 42.907 228.758 38.4427 227.198L35.2796 236.25C39.7197 237.802 42.0707 242.697 40.5145 247.151C38.9583 251.604 34.0941 253.978 29.6299 252.418L26.4668 261.47C30.9069 263.022 33.2579 267.917 31.7017 272.371C30.1455 276.824 25.2813 279.198 20.8171 277.638L17.654 286.69C22.0941 288.242 24.4451 293.137 22.8889 297.591C21.3327 302.044 16.4685 304.418 12.0043 302.858L8.84115 311.91C13.2813 313.462 15.6323 318.357 14.0761 322.811C12.5114 327.288 7.65573 329.638 3.19149 328.078L0.0452617 337.082L9.07027 340.236C10.6349 335.758 15.5148 333.417 19.9549 334.968C24.4191 336.528 26.746 341.415 25.1898 345.868L34.2148 349.022C35.7795 344.544 40.6593 342.203 45.0994 343.755C49.5636 345.315 51.8905 350.201 50.3343 354.655L59.3593 357.809C60.924 353.331 65.8038 350.989 70.2439 352.541C74.7082 354.101 77.0351 358.988 75.4789 363.441L84.5039 366.595C86.0685 362.117 90.9484 359.776 95.3885 361.327C99.8527 362.887 102.18 367.774 100.623 372.228L109.624 375.373C111.189 370.895 116.069 368.554 120.509 370.105C124.973 371.665 127.3 376.552 125.744 381.006L134.745 384.151C136.309 379.673 141.189 377.332 145.629 378.883C150.094 380.443 152.42 385.33 150.864 389.784L159.889 392.937C161.454 388.46 166.334 386.118 170.774 387.67C175.238 389.23 177.565 394.117 176.009 398.57L185.01 401.715C186.574 397.238 191.454 394.896 195.894 396.448C200.358 398.008 202.685 402.895 201.129 407.348L210.154 410.502C211.719 406.024 216.599 403.683 221.039 405.234C225.503 406.794 227.83 411.681 226.274 416.135L235.275 419.28C236.839 414.802 241.719 412.461 246.159 414.012C250.623 415.572 252.95 420.459 251.394 424.913L260.419 428.066C261.984 423.589 266.864 421.247 271.304 422.799C275.768 424.359 278.095 429.246 276.539 433.699L285.54 436.844L288.686 427.841C284.221 426.281 281.895 421.394 283.451 416.94C285.015 412.463 289.895 410.121 294.335 411.673L297.499 402.621C293.034 401.061 290.707 396.174 292.264 391.72C293.828 387.243 298.708 384.901 303.148 386.453C303.148 386.453 303.148 386.453 303.172 386.461L306.335 377.409C301.871 375.849 299.544 370.962 301.101 366.509C302.665 362.031 307.545 359.69 311.985 361.241L315.14 352.213C310.676 350.653 308.349 345.767 309.905 341.313C311.47 336.835 316.349 334.494 320.79 336.046L323.936 327.042C319.471 325.482 317.145 320.595 318.701 316.142C320.265 311.664 325.145 309.322 329.585 310.874L332.74 301.846C328.276 300.286 325.949 295.399 327.505 290.946C329.07 286.468 333.95 284.127 338.39 285.678L341.544 276.65C337.08 275.09 334.753 270.203 336.31 265.75C337.874 261.272 342.754 258.931 347.194 260.482L350.357 251.43C345.893 249.87 343.566 244.983 345.122 240.53C346.687 236.052 351.567 233.711 356.007 235.262L359.17 226.21C354.876 224.628 352.549 219.741 354.105 215.288Z" fill="#F9F0DF" stroke="#EBC48B" stroke-width="1.75999" mask="url(#path-1-inside-1_3347_55)"/>
</svg>
