<svg width="324" height="374" viewBox="0 0 324 374" fill="none" xmlns="http://www.w3.org/2000/svg">
<path d="M299.51 124.306C299.186 119.613 302.719 115.571 307.372 115.25L306.718 105.762C302.038 106.085 298.007 102.54 297.685 97.872C297.361 93.1788 300.894 89.1369 305.548 88.8157L304.895 79.3532C300.215 79.6762 296.184 76.131 295.862 71.4632C295.538 66.77 299.071 62.7281 303.725 62.4069L303.07 52.919C298.391 53.242 294.359 49.6968 294.037 45.029C293.713 40.3358 297.246 36.2939 301.9 35.9727L301.247 26.5102C296.568 26.8332 292.536 23.288 292.214 18.6202C291.89 13.927 295.423 9.88514 300.077 9.56389L299.417 -0.000105433L289.983 0.651119C290.307 5.34433 286.774 9.38615 282.12 9.7074C277.441 10.0304 273.409 6.48522 273.087 1.81739L263.628 2.47036C263.952 7.16356 260.419 11.2054 255.765 11.5266C251.086 11.8496 247.054 8.30446 246.732 3.63662L237.247 4.29134C237.571 8.98455 234.038 13.0264 229.384 13.3476C224.705 13.6706 220.674 10.1254 220.352 5.45761L210.892 6.11058C211.216 10.8038 207.683 14.8456 203.029 15.1669C198.35 15.4898 194.319 11.9447 193.997 7.27685L184.562 7.92807C184.886 12.6213 181.353 16.6631 176.699 16.9843C172.02 17.3073 167.989 13.7622 167.667 9.09434L158.207 9.74731C158.531 14.4405 154.998 18.4823 150.344 18.8036C145.665 19.1266 141.634 15.5814 141.312 10.9136L131.877 11.5648C132.201 16.258 128.668 20.2998 124.015 20.6211C119.335 20.9441 115.304 17.3989 114.982 12.7311L105.548 13.3823C105.872 18.0755 102.339 22.1173 97.6847 22.4386C92.9044 22.7685 88.8495 19.2505 88.5256 14.5573L79.066 15.2103C79.39 19.9035 75.857 23.9453 71.2031 24.2665C66.524 24.5895 62.4927 21.0444 62.1705 16.3765L52.7109 17.0295C53.0349 21.7227 49.5019 25.7645 44.848 26.0858C40.1689 26.4088 36.1376 22.8636 35.8153 18.1958L26.3558 18.8487C26.6798 23.5419 23.1468 27.5838 18.4929 27.905C13.8138 28.228 9.78245 24.6828 9.46024 20.015L0.000732422 20.668L0.655662 30.1559C5.33483 29.8329 9.36613 33.378 9.68834 38.0459C10.0123 42.7391 6.4793 46.7809 1.82543 47.1021L2.47861 56.5647C7.15778 56.2417 11.1891 59.7868 11.5113 64.4547C11.8352 69.1479 8.30225 73.1897 3.64837 73.511L4.3033 82.9988C8.98247 82.6759 13.0138 86.221 13.336 90.8889C13.6599 95.5821 10.1269 99.6239 5.47307 99.9451L6.12975 109.458C10.8089 109.135 14.8402 112.681 15.1624 117.348C15.4864 122.042 11.9534 126.083 7.29952 126.405L7.95444 135.893C12.6336 135.57 16.6649 139.115 16.9871 143.783C17.3111 148.476 13.7781 152.518 9.12421 152.839L9.77914 162.327C14.4583 162.004 18.4896 165.549 18.8118 170.217C19.1358 174.91 15.6028 178.952 10.9489 179.273L11.6038 188.761C16.283 188.438 20.3143 191.983 20.6365 196.651C20.9605 201.344 17.4275 205.386 12.7736 205.707L13.4268 215.17C18.106 214.847 22.1373 218.392 22.4595 223.06C22.7834 227.753 19.2504 231.795 14.5965 232.116L15.2515 241.604C19.9054 241.283 23.9619 244.826 24.2842 249.494C24.6064 254.162 21.1004 258.227 16.4212 258.55L17.0762 268.038C21.73 267.717 25.7866 271.26 26.1089 275.928C26.4311 280.596 22.9251 284.661 18.2459 284.984L18.9009 294.472C23.5547 294.151 27.6113 297.694 27.9335 302.362C28.2558 307.03 24.7498 311.096 20.0706 311.419L20.7256 320.906C25.3794 320.585 29.436 324.129 29.7582 328.796C30.0805 333.464 26.5745 337.53 21.8953 337.853L22.5503 347.341C27.2041 347.019 31.2607 350.563 31.5829 355.231C31.9069 359.924 28.3992 363.964 23.72 364.287L24.3715 373.724L33.831 373.071C33.507 368.378 37.04 364.336 41.6939 364.015C46.373 363.692 50.4043 367.237 50.7266 371.905L60.1861 371.252C59.8621 366.559 63.3951 362.517 68.049 362.196C72.7282 361.873 76.7595 365.418 77.0817 370.086L86.5412 369.433C86.2172 364.739 89.7502 360.698 94.4041 360.376C99.0833 360.053 103.115 363.599 103.437 368.266L112.896 367.613C112.572 362.92 116.105 358.878 120.759 358.557C125.438 358.234 129.47 361.779 129.792 366.447L139.226 365.796C138.902 361.103 142.435 357.061 147.089 356.74C151.768 356.417 155.799 359.962 156.122 364.63L165.556 363.978C165.232 359.285 168.765 355.243 173.419 354.922C178.098 354.599 182.129 358.144 182.451 362.812L191.911 362.159C191.587 357.466 195.12 353.424 199.774 353.103C204.453 352.78 208.484 356.325 208.807 360.993L218.241 360.342C217.917 355.648 221.45 351.607 226.104 351.285C230.783 350.962 234.814 354.508 235.136 359.175L244.596 358.522C244.272 353.829 247.805 349.787 252.459 349.466C257.138 349.143 261.169 352.688 261.492 357.356L270.926 356.705C270.602 352.012 274.135 347.97 278.789 347.649C283.468 347.326 287.499 350.871 287.821 355.539L297.281 354.886C296.957 350.193 300.49 346.151 305.144 345.829C309.823 345.506 313.854 349.052 314.176 353.719L323.611 353.068L322.959 343.631C318.28 343.954 314.249 340.409 313.927 335.741C313.603 331.048 317.136 327.006 321.789 326.685L321.135 317.197C316.455 317.52 312.424 313.975 312.102 309.307C311.778 304.614 315.311 300.572 319.965 300.251C319.965 300.251 319.965 300.251 319.99 300.249L319.335 290.761C314.656 291.084 310.625 287.539 310.302 282.871C309.978 278.178 313.511 274.136 318.165 273.815L317.512 264.352C312.833 264.675 308.802 261.13 308.48 256.462C308.156 251.769 311.689 247.727 316.342 247.406L315.691 237.969C311.012 238.292 306.981 234.747 306.658 230.079C306.334 225.385 309.867 221.344 314.521 221.022L313.868 211.56C309.189 211.883 305.158 208.338 304.835 203.67C304.511 198.977 308.044 194.935 312.698 194.614L312.045 185.151C307.366 185.474 303.335 181.929 303.012 177.261C302.688 172.568 306.221 168.526 310.875 168.205L310.22 158.717C305.541 159.04 301.51 155.495 301.188 150.827C300.864 146.134 304.397 142.092 309.051 141.771L308.396 132.283C303.863 132.519 299.832 128.974 299.51 124.306Z" fill="#8A1538"/>
</svg>
