<svg width="34" height="34" viewBox="0 0 34 34" fill="none" xmlns="http://www.w3.org/2000/svg">
<path d="M33.9565 2.01919V8.33646C33.9565 8.6157 33.8456 8.8835 33.6481 9.08096C33.4507 9.27841 33.1829 9.38934 32.9036 9.38934C32.6244 9.38934 32.3566 9.27841 32.1591 9.08096C31.9617 8.8835 31.8507 8.6157 31.8507 8.33646V3.07207H26.5864C26.3071 3.07207 26.0393 2.96114 25.8419 2.76368C25.6444 2.56623 25.5335 2.29843 25.5335 2.01919C25.5335 1.73995 25.6444 1.47214 25.8419 1.27469C26.0393 1.07724 26.3071 0.966309 26.5864 0.966309H32.9036C33.1829 0.966309 33.4507 1.07724 33.6481 1.27469C33.8456 1.47214 33.9565 1.73995 33.9565 2.01919ZM32.9036 25.5335C32.6244 25.5335 32.3566 25.6444 32.1591 25.8419C31.9617 26.0393 31.8507 26.3071 31.8507 26.5864V31.8507H26.5864C26.3071 31.8507 26.0393 31.9617 25.8419 32.1591C25.6444 32.3566 25.5335 32.6244 25.5335 32.9036C25.5335 33.1829 25.6444 33.4507 25.8419 33.6481C26.0393 33.8456 26.3071 33.9565 26.5864 33.9565H32.9036C33.1829 33.9565 33.4507 33.8456 33.6481 33.6481C33.8456 33.4507 33.9565 33.1829 33.9565 32.9036V26.5864C33.9565 26.3071 33.8456 26.0393 33.6481 25.8419C33.4507 25.6444 33.1829 25.5335 32.9036 25.5335ZM8.33646 31.8507H3.07207V26.5864C3.07207 26.3071 2.96114 26.0393 2.76368 25.8419C2.56623 25.6444 2.29843 25.5335 2.01919 25.5335C1.73995 25.5335 1.47214 25.6444 1.27469 25.8419C1.07724 26.0393 0.966309 26.3071 0.966309 26.5864V32.9036C0.966309 33.1829 1.07724 33.4507 1.27469 33.6481C1.47214 33.8456 1.73995 33.9565 2.01919 33.9565H8.33646C8.6157 33.9565 8.8835 33.8456 9.08096 33.6481C9.27841 33.4507 9.38934 33.1829 9.38934 32.9036C9.38934 32.6244 9.27841 32.3566 9.08096 32.1591C8.8835 31.9617 8.6157 31.8507 8.33646 31.8507ZM2.01919 9.38934C2.29843 9.38934 2.56623 9.27841 2.76368 9.08096C2.96114 8.8835 3.07207 8.6157 3.07207 8.33646V3.07207H8.33646C8.6157 3.07207 8.8835 2.96114 9.08096 2.76368C9.27841 2.56623 9.38934 2.29843 9.38934 2.01919C9.38934 1.73995 9.27841 1.47214 9.08096 1.27469C8.8835 1.07724 8.6157 0.966309 8.33646 0.966309H2.01919C1.73995 0.966309 1.47214 1.07724 1.27469 1.27469C1.07724 1.47214 0.966309 1.73995 0.966309 2.01919V8.33646C0.966309 8.6157 1.07724 8.8835 1.27469 9.08096C1.47214 9.27841 1.73995 9.38934 2.01919 9.38934ZM25.8844 25.5335C25.721 25.5335 25.5598 25.4954 25.4136 25.4223C25.2674 25.3492 25.1402 25.2431 25.0421 25.1123C24.1595 23.9355 23.0149 22.9802 21.6992 22.3224C20.3834 21.6645 18.9325 21.322 17.4614 21.322C15.9903 21.322 14.5394 21.6645 13.2237 22.3224C11.9079 22.9802 10.7633 23.9355 9.88068 25.1123C9.79772 25.2229 9.69379 25.3161 9.57481 25.3866C9.45584 25.457 9.32415 25.5033 9.18728 25.5229C9.0504 25.5424 8.91101 25.5349 8.77707 25.5005C8.64313 25.4662 8.51726 25.4059 8.40665 25.3229C8.29604 25.2399 8.20285 25.136 8.1324 25.017C8.06196 24.8981 8.01564 24.7664 7.99608 24.6295C7.97653 24.4926 7.98413 24.3532 8.01844 24.2193C8.05276 24.0854 8.11311 23.9595 8.19607 23.8489C9.52096 22.0729 11.3299 20.7166 13.4061 19.9427C12.2997 19.0951 11.4867 17.9221 11.0814 16.5887C10.6761 15.2552 10.6988 13.8282 11.1462 12.5083C11.5937 11.1884 12.4436 10.0419 13.5763 9.22983C14.709 8.41781 16.0677 7.98111 17.4614 7.98111C18.8551 7.98111 20.2138 8.41781 21.3465 9.22983C22.4793 10.0419 23.3291 11.1884 23.7766 12.5083C24.2241 13.8282 24.2467 15.2552 23.8414 16.5887C23.4361 17.9221 22.6231 19.0951 21.5167 19.9427C23.5929 20.7166 25.4019 22.0729 26.7267 23.8489C26.8441 24.0053 26.9155 24.1913 26.9331 24.386C26.9506 24.5808 26.9136 24.7766 26.8262 24.9515C26.7387 25.1263 26.6043 25.2734 26.438 25.3762C26.2716 25.479 26.08 25.5335 25.8844 25.5335ZM17.4614 19.2162C18.3638 19.2162 19.2459 18.9486 19.9962 18.4473C20.7465 17.946 21.3313 17.2334 21.6766 16.3997C22.0219 15.566 22.1123 14.6487 21.9362 13.7636C21.7602 12.8786 21.3256 12.0656 20.6876 11.4276C20.0495 10.7895 19.2365 10.355 18.3515 10.1789C17.4665 10.0029 16.5491 10.0932 15.7154 10.4386C14.8817 10.7839 14.1692 11.3687 13.6678 12.119C13.1665 12.8693 12.8989 13.7514 12.8989 14.6537C12.8989 15.8638 13.3796 17.0243 14.2353 17.8799C15.0909 18.7355 16.2514 19.2162 17.4614 19.2162Z" fill="#8A1538"/>
</svg>
