<svg width="37" height="35" viewBox="0 0 37 35" fill="none" xmlns="http://www.w3.org/2000/svg">
<path d="M35.4419 6.23222L18.5959 0.616868C18.3795 0.544622 18.1455 0.544622 17.929 0.616868L1.08299 6.23222C0.873498 6.30216 0.691301 6.43621 0.562185 6.6154C0.433068 6.79458 0.36357 7.00984 0.363525 7.2307V21.2691C0.363525 21.5483 0.474453 21.8161 0.671906 22.0136C0.869359 22.211 1.13716 22.322 1.4164 22.322C1.69564 22.322 1.96345 22.211 2.1609 22.0136C2.35835 21.8161 2.46928 21.5483 2.46928 21.2691V8.69069L9.25684 10.9544C8.4009 12.2193 7.82088 13.6503 7.55453 15.1543C7.28818 16.6582 7.34147 18.2014 7.71093 19.6833C8.08039 21.1653 8.75774 22.5529 9.69891 23.7558C10.6401 24.9587 11.824 25.95 13.1735 26.6651C9.79556 27.811 6.85628 30.1027 4.75052 33.3333C4.62948 33.5651 4.59905 33.8337 4.66516 34.0868C4.73128 34.3398 4.8892 34.5592 5.10818 34.7022C5.32716 34.8452 5.59152 34.9015 5.84978 34.8603C6.10805 34.8191 6.34173 34.6832 6.50532 34.4792C9.21999 30.3221 13.5034 27.9373 18.2625 27.9373C23.0215 27.9373 27.3049 30.3221 30.0196 34.4792C30.1822 34.6876 30.4172 34.8272 30.678 34.8703C30.9388 34.9134 31.2062 34.8568 31.4272 34.7119C31.6482 34.5669 31.8066 34.3441 31.8709 34.0877C31.9352 33.8314 31.9008 33.5602 31.7744 33.328C29.6686 30.1027 26.7329 27.811 23.3514 26.6598C24.7002 25.9439 25.8833 24.9521 26.8236 23.7488C27.7638 22.5456 28.4403 21.1579 28.8089 19.676C29.1775 18.194 29.2301 16.6511 28.9631 15.1476C28.6961 13.644 28.1156 12.2135 27.2593 10.9491L35.4419 8.22918C35.6513 8.15913 35.8334 8.02504 35.9624 7.84586C36.0913 7.66668 36.1608 7.45148 36.1608 7.2307C36.1608 7.00992 36.0913 6.79472 35.9624 6.61554C35.8334 6.43636 35.6513 6.30227 35.4419 6.23222ZM27.0364 17.0576C27.0371 18.4557 26.7036 19.8337 26.0637 21.0768C25.4239 22.3199 24.4963 23.3921 23.3581 24.2041C22.22 25.016 20.9043 25.5443 19.5206 25.7448C18.137 25.9452 16.7255 25.8122 15.4037 25.3566C14.0818 24.9011 12.888 24.1363 11.9217 23.1259C10.9554 22.1155 10.2444 20.8888 9.84821 19.5481C9.45198 18.2073 9.38189 16.7912 9.64378 15.4179C9.90568 14.0445 10.492 12.7537 11.3538 11.6528L17.929 13.8445C18.1455 13.9168 18.3795 13.9168 18.5959 13.8445L25.1711 11.6528C26.3816 13.1941 27.0386 15.0977 27.0364 17.0576ZM18.2625 11.737L4.75052 7.2307L18.2625 2.72438L31.7744 7.2307L18.2625 11.737Z" fill="#8A1538"/>
</svg>
