<svg width="42" height="33" viewBox="0 0 42 33" fill="none" xmlns="http://www.w3.org/2000/svg">
<path d="M39.9071 20.0322C39.4264 19.6619 38.8667 19.4079 38.2716 19.2897C37.6764 19.1716 37.0621 19.1927 36.4765 19.3513L35.7184 19.5268C39.5351 15.9786 41.4653 12.462 41.4653 9.03835C41.4653 4.58818 37.8873 0.966282 33.488 0.966282C32.2473 0.958507 31.0219 1.23991 29.9089 1.78819C28.7959 2.33646 27.826 3.13652 27.076 4.12492C26.326 3.13652 25.3561 2.33646 24.2431 1.78819C23.1301 1.23991 21.9047 0.958507 20.664 0.966282C16.2647 0.966282 12.6867 4.58818 12.6867 9.03835C12.6867 11.0353 13.3237 12.9849 14.6678 15.0678C13.566 15.2378 12.5476 15.7562 11.7619 16.5471L7.689 20.62H2.50884C1.85728 20.62 1.2324 20.8788 0.77168 21.3396C0.310956 21.8003 0.052124 22.4252 0.052124 23.0767V30.0959C0.052124 30.7475 0.310956 31.3724 0.77168 31.8331C1.2324 32.2938 1.85728 32.5526 2.50884 32.5526H20.7587C20.8451 32.5527 20.9312 32.5421 21.0149 32.5211L32.2456 29.7134C32.2988 29.6993 32.351 29.6817 32.4018 29.6607L39.2139 26.7618L39.2718 26.7355C39.8742 26.4347 40.39 25.9855 40.7707 25.4303C41.1515 24.8751 41.3846 24.232 41.4481 23.5618C41.5117 22.8916 41.4036 22.2162 41.134 21.5993C40.8643 20.9824 40.4421 20.4443 39.9071 20.0357V20.0322ZM20.664 3.07204C21.8219 3.05659 22.9581 3.38699 23.9272 4.02096C24.8963 4.65492 25.6542 5.56362 26.1038 6.63077C26.1832 6.82388 26.3181 6.98905 26.4915 7.10529C26.6649 7.22153 26.869 7.28359 27.0778 7.28359C27.2865 7.28359 27.4906 7.22153 27.664 7.10529C27.8374 6.98905 27.9723 6.82388 28.0517 6.63077C28.5014 5.56362 29.2593 4.65492 30.2283 4.02096C31.1974 3.38699 32.3336 3.05659 33.4915 3.07204C36.6712 3.07204 39.3596 5.80426 39.3596 9.03835C39.3596 12.5901 36.5203 16.584 31.1471 20.5761L28.5378 21.1763C28.798 20.4858 28.8869 19.7426 28.7968 19.0102C28.7068 18.2779 28.4404 17.5783 28.0206 16.9715C27.6008 16.3646 27.0401 15.8687 26.3866 15.5261C25.7331 15.1836 25.0062 15.0046 24.2683 15.0047H17.1912C15.5575 12.841 14.7924 10.9353 14.7924 9.03835C14.7924 5.80426 17.4808 3.07204 20.664 3.07204ZM2.15788 30.0959V23.0767C2.15788 22.9837 2.19486 22.8944 2.26067 22.8286C2.32649 22.7627 2.41576 22.7258 2.50884 22.7258H7.07131V30.4469H2.50884C2.41576 30.4469 2.32649 30.4099 2.26067 30.3441C2.19486 30.2783 2.15788 30.189 2.15788 30.0959ZM38.3558 24.8315L31.6525 27.6866L20.6289 30.4469H9.17707V22.1098L13.25 18.0352C13.5426 17.741 13.8908 17.5077 14.2742 17.349C14.6577 17.1903 15.0688 17.1092 15.4838 17.1104H24.2683C24.9199 17.1104 25.5448 17.3693 26.0055 17.83C26.4662 18.2907 26.725 18.9156 26.725 19.5671C26.725 20.2187 26.4662 20.8436 26.0055 21.3043C25.5448 21.765 24.9199 22.0239 24.2683 22.0239H19.3549C19.0757 22.0239 18.8079 22.1348 18.6104 22.3322C18.4129 22.5297 18.302 22.7975 18.302 23.0767C18.302 23.356 18.4129 23.6238 18.6104 23.8212C18.8079 24.0187 19.0757 24.1296 19.3549 24.1296H24.9702C25.0494 24.1297 25.1282 24.1209 25.2054 24.1033L36.9625 21.3991L37.0047 21.3886C37.4472 21.268 37.9186 21.3151 38.3285 21.5209C38.7384 21.7267 39.0578 22.0767 39.2254 22.5037C39.393 22.9306 39.3969 23.4044 39.2364 23.8341C39.0759 24.2638 38.7623 24.619 38.3558 24.8315Z" fill="#8A1538"/>
</svg>
